<mxfile host="app.diagrams.net" agent="Mozilla/5.0 (Windows NT 10.0; Win64; x64) AppleWebKit/537.36 (KHTML, like Gecko) Chrome/127.0.0.0 Safari/537.36 Edg/127.0.0.0" version="24.7.6">
  <diagram name="Page-1" id="xmdRBOPXSC14imQtOyle">
    <mxGraphModel dx="2981" dy="1004" grid="1" gridSize="10" guides="1" tooltips="1" connect="1" arrows="1" fold="1" page="1" pageScale="1" pageWidth="850" pageHeight="1100" math="0" shadow="0">
      <root>
        <mxCell id="0" />
        <mxCell id="1" parent="0" />
        <mxCell id="VfQEoNdsdzEUcPi7nmdl-46" style="edgeStyle=orthogonalEdgeStyle;rounded=0;orthogonalLoop=1;jettySize=auto;html=1;" parent="1" source="VfQEoNdsdzEUcPi7nmdl-14" target="VfQEoNdsdzEUcPi7nmdl-37" edge="1">
          <mxGeometry relative="1" as="geometry" />
        </mxCell>
        <mxCell id="VfQEoNdsdzEUcPi7nmdl-14" value="Turnos" style="swimlane;fontStyle=0;childLayout=stackLayout;horizontal=1;startSize=26;fillColor=none;horizontalStack=0;resizeParent=1;resizeParentMax=0;resizeLast=0;collapsible=1;marginBottom=0;whiteSpace=wrap;html=1;" parent="1" vertex="1">
          <mxGeometry x="360" y="190" width="150" height="190" as="geometry" />
        </mxCell>
        <mxCell id="VfQEoNdsdzEUcPi7nmdl-15" value="PK fecha&lt;div&gt;PK&amp;nbsp;&lt;span style=&quot;background-color: initial;&quot;&gt;hora&lt;/span&gt;&lt;br&gt;&lt;div&gt;Especialidad:Especialidad&lt;/div&gt;&lt;div&gt;cod_EstadotTurno FK&lt;/div&gt;&lt;div&gt;cod_TipoTurno FK&lt;/div&gt;&lt;div&gt;&lt;span style=&quot;background-color: initial;&quot;&gt;cod_paciente FK&lt;/span&gt;&lt;/div&gt;&lt;div&gt;&lt;span style=&quot;background-color: initial;&quot;&gt;MatriculaProfesional FK&lt;/span&gt;&lt;br&gt;&lt;/div&gt;&lt;div&gt;codEspecialidad FK&lt;/div&gt;&lt;div&gt;&lt;br&gt;&lt;/div&gt;&lt;/div&gt;" style="text;strokeColor=none;fillColor=none;align=left;verticalAlign=top;spacingLeft=4;spacingRight=4;overflow=hidden;rotatable=0;points=[[0,0.5],[1,0.5]];portConstraint=eastwest;whiteSpace=wrap;html=1;" parent="VfQEoNdsdzEUcPi7nmdl-14" vertex="1">
          <mxGeometry y="26" width="150" height="164" as="geometry" />
        </mxCell>
        <mxCell id="VfQEoNdsdzEUcPi7nmdl-19" value="EstadoTurno" style="swimlane;fontStyle=0;childLayout=stackLayout;horizontal=1;startSize=26;fillColor=none;horizontalStack=0;resizeParent=1;resizeParentMax=0;resizeLast=0;collapsible=1;marginBottom=0;whiteSpace=wrap;html=1;" parent="1" vertex="1">
          <mxGeometry x="60" y="20" width="150" height="130" as="geometry" />
        </mxCell>
        <mxCell id="VfQEoNdsdzEUcPi7nmdl-20" value="&lt;div&gt;&lt;span style=&quot;background-color: initial;&quot;&gt;cod PK&lt;/span&gt;&lt;/div&gt;&lt;div&gt;&lt;span style=&quot;background-color: initial;&quot;&gt;Nombre&lt;/span&gt;&lt;/div&gt;&lt;div&gt;&lt;span style=&quot;background-color: initial;&quot;&gt;Descripcion&lt;/span&gt;&lt;/div&gt;" style="text;strokeColor=none;fillColor=none;align=left;verticalAlign=top;spacingLeft=4;spacingRight=4;overflow=hidden;rotatable=0;points=[[0,0.5],[1,0.5]];portConstraint=eastwest;whiteSpace=wrap;html=1;" parent="VfQEoNdsdzEUcPi7nmdl-19" vertex="1">
          <mxGeometry y="26" width="150" height="104" as="geometry" />
        </mxCell>
        <mxCell id="VfQEoNdsdzEUcPi7nmdl-21" value="TipoTurno" style="swimlane;fontStyle=0;childLayout=stackLayout;horizontal=1;startSize=26;fillColor=none;horizontalStack=0;resizeParent=1;resizeParentMax=0;resizeLast=0;collapsible=1;marginBottom=0;whiteSpace=wrap;html=1;" parent="1" vertex="1">
          <mxGeometry x="50" y="220" width="150" height="130" as="geometry" />
        </mxCell>
        <mxCell id="VfQEoNdsdzEUcPi7nmdl-22" value="&lt;div&gt;&lt;span style=&quot;background-color: initial;&quot;&gt;cod PK&lt;/span&gt;&lt;/div&gt;&lt;div&gt;&lt;span style=&quot;background-color: initial;&quot;&gt;nombre&lt;/span&gt;&lt;/div&gt;&lt;div&gt;&lt;span style=&quot;background-color: initial;&quot;&gt;descricpion&lt;/span&gt;&lt;/div&gt;" style="text;strokeColor=none;fillColor=none;align=left;verticalAlign=top;spacingLeft=4;spacingRight=4;overflow=hidden;rotatable=0;points=[[0,0.5],[1,0.5]];portConstraint=eastwest;whiteSpace=wrap;html=1;" parent="VfQEoNdsdzEUcPi7nmdl-21" vertex="1">
          <mxGeometry y="26" width="150" height="104" as="geometry" />
        </mxCell>
        <mxCell id="Nffam_OnWRN9GMrJE0Es-19" style="edgeStyle=orthogonalEdgeStyle;rounded=0;orthogonalLoop=1;jettySize=auto;html=1;entryX=0.5;entryY=0;entryDx=0;entryDy=0;" edge="1" parent="1" source="VfQEoNdsdzEUcPi7nmdl-23" target="VfQEoNdsdzEUcPi7nmdl-25">
          <mxGeometry relative="1" as="geometry">
            <Array as="points">
              <mxPoint x="820" y="290" />
              <mxPoint x="820" y="290" />
            </Array>
          </mxGeometry>
        </mxCell>
        <mxCell id="VfQEoNdsdzEUcPi7nmdl-23" value="HistoriaClinica" style="swimlane;fontStyle=0;childLayout=stackLayout;horizontal=1;startSize=26;fillColor=none;horizontalStack=0;resizeParent=1;resizeParentMax=0;resizeLast=0;collapsible=1;marginBottom=0;whiteSpace=wrap;html=1;" parent="1" vertex="1">
          <mxGeometry x="745" y="100" width="150" height="140" as="geometry" />
        </mxCell>
        <mxCell id="VfQEoNdsdzEUcPi7nmdl-24" value="&lt;div&gt;ID PK&lt;/div&gt;&lt;div&gt;&lt;br&gt;&lt;/div&gt;&lt;div&gt;&lt;br&gt;&lt;/div&gt;" style="text;strokeColor=none;fillColor=none;align=left;verticalAlign=top;spacingLeft=4;spacingRight=4;overflow=hidden;rotatable=0;points=[[0,0.5],[1,0.5]];portConstraint=eastwest;whiteSpace=wrap;html=1;" parent="VfQEoNdsdzEUcPi7nmdl-23" vertex="1">
          <mxGeometry y="26" width="150" height="114" as="geometry" />
        </mxCell>
        <mxCell id="Nffam_OnWRN9GMrJE0Es-11" style="edgeStyle=orthogonalEdgeStyle;rounded=0;orthogonalLoop=1;jettySize=auto;html=1;entryX=0;entryY=0.5;entryDx=0;entryDy=0;" edge="1" parent="1" source="VfQEoNdsdzEUcPi7nmdl-25" target="Nffam_OnWRN9GMrJE0Es-6">
          <mxGeometry relative="1" as="geometry" />
        </mxCell>
        <mxCell id="Nffam_OnWRN9GMrJE0Es-21" style="edgeStyle=orthogonalEdgeStyle;rounded=0;orthogonalLoop=1;jettySize=auto;html=1;entryX=1;entryY=0.5;entryDx=0;entryDy=0;" edge="1" parent="1" source="VfQEoNdsdzEUcPi7nmdl-25" target="VfQEoNdsdzEUcPi7nmdl-24">
          <mxGeometry relative="1" as="geometry">
            <Array as="points">
              <mxPoint x="870" y="295" />
              <mxPoint x="915" y="295" />
              <mxPoint x="915" y="183" />
            </Array>
          </mxGeometry>
        </mxCell>
        <mxCell id="VfQEoNdsdzEUcPi7nmdl-25" value="Pacientes" style="swimlane;fontStyle=0;childLayout=stackLayout;horizontal=1;startSize=26;fillColor=none;horizontalStack=0;resizeParent=1;resizeParentMax=0;resizeLast=0;collapsible=1;marginBottom=0;whiteSpace=wrap;html=1;" parent="1" vertex="1">
          <mxGeometry x="740" y="350" width="160" height="220" as="geometry" />
        </mxCell>
        <mxCell id="VfQEoNdsdzEUcPi7nmdl-26" value="&lt;div&gt;Nombrey&lt;span style=&quot;background-color: initial;&quot;&gt;Apellido&lt;/span&gt;&lt;br&gt;&lt;/div&gt;&lt;div&gt;&lt;span style=&quot;background-color: initial;&quot;&gt;PK codigo&lt;/span&gt;&lt;/div&gt;&lt;div&gt;Sexo FK&lt;/div&gt;&lt;div&gt;FechaNacimiento&lt;/div&gt;&lt;div&gt;&lt;span style=&quot;background-color: initial;&quot;&gt;Numero_CUD FK&lt;/span&gt;&lt;/div&gt;&lt;div&gt;&lt;span style=&quot;background-color: initial;&quot;&gt;DNI&lt;/span&gt;&lt;br&gt;&lt;/div&gt;&lt;div&gt;TipoDoc&lt;/div&gt;&lt;div&gt;Domicilio FK&lt;/div&gt;&lt;div&gt;cod_Evolucion FK&lt;/div&gt;&lt;div&gt;cod_Estudio FK&lt;/div&gt;&lt;div&gt;cod_Medicamento FK&lt;/div&gt;&lt;div&gt;&lt;br&gt;&lt;/div&gt;" style="text;strokeColor=none;fillColor=none;align=left;verticalAlign=top;spacingLeft=4;spacingRight=4;overflow=hidden;rotatable=0;points=[[0,0.5],[1,0.5]];portConstraint=eastwest;whiteSpace=wrap;html=1;" parent="VfQEoNdsdzEUcPi7nmdl-25" vertex="1">
          <mxGeometry y="26" width="160" height="194" as="geometry" />
        </mxCell>
        <mxCell id="VfQEoNdsdzEUcPi7nmdl-27" value="Profesional" style="swimlane;fontStyle=0;childLayout=stackLayout;horizontal=1;startSize=26;fillColor=none;horizontalStack=0;resizeParent=1;resizeParentMax=0;resizeLast=0;collapsible=1;marginBottom=0;whiteSpace=wrap;html=1;" parent="1" vertex="1">
          <mxGeometry x="110" y="495" width="170" height="150" as="geometry" />
        </mxCell>
        <mxCell id="VfQEoNdsdzEUcPi7nmdl-28" value="&lt;div&gt;Especialidad:Especialidad&lt;/div&gt;&lt;div&gt;PK Matricula&lt;/div&gt;&lt;div&gt;Prescriptor:Prescriptor&lt;/div&gt;&lt;div&gt;TipoMatricula:TipoMatricula&lt;/div&gt;&lt;div&gt;ProvinciaMatricula:Provincia&lt;/div&gt;&lt;div&gt;Activo(SI/NO)&lt;/div&gt;&lt;div&gt;nombre&lt;/div&gt;" style="text;strokeColor=none;fillColor=none;align=left;verticalAlign=top;spacingLeft=4;spacingRight=4;overflow=hidden;rotatable=0;points=[[0,0.5],[1,0.5]];portConstraint=eastwest;whiteSpace=wrap;html=1;" parent="VfQEoNdsdzEUcPi7nmdl-27" vertex="1">
          <mxGeometry y="26" width="170" height="124" as="geometry" />
        </mxCell>
        <mxCell id="VfQEoNdsdzEUcPi7nmdl-29" value="Especialidad" style="swimlane;fontStyle=0;childLayout=stackLayout;horizontal=1;startSize=26;fillColor=none;horizontalStack=0;resizeParent=1;resizeParentMax=0;resizeLast=0;collapsible=1;marginBottom=0;whiteSpace=wrap;html=1;" parent="1" vertex="1">
          <mxGeometry x="120" y="730" width="150" height="140" as="geometry" />
        </mxCell>
        <mxCell id="VfQEoNdsdzEUcPi7nmdl-30" value="&lt;div&gt;&lt;span style=&quot;background-color: initial;&quot;&gt;PK codigo&lt;/span&gt;&lt;/div&gt;&lt;div&gt;&lt;span style=&quot;background-color: initial;&quot;&gt;&amp;nbsp;Descripcion&lt;/span&gt;&lt;/div&gt;&lt;div&gt;&lt;span style=&quot;background-color: initial;&quot;&gt;Vigente(si/no)&lt;/span&gt;&lt;/div&gt;&lt;div&gt;&lt;br&gt;&lt;/div&gt;" style="text;strokeColor=none;fillColor=none;align=left;verticalAlign=top;spacingLeft=4;spacingRight=4;overflow=hidden;rotatable=0;points=[[0,0.5],[1,0.5]];portConstraint=eastwest;whiteSpace=wrap;html=1;" parent="VfQEoNdsdzEUcPi7nmdl-29" vertex="1">
          <mxGeometry y="26" width="150" height="114" as="geometry" />
        </mxCell>
        <mxCell id="VfQEoNdsdzEUcPi7nmdl-31" value="Prescriptor" style="swimlane;fontStyle=0;childLayout=stackLayout;horizontal=1;startSize=26;fillColor=none;horizontalStack=0;resizeParent=1;resizeParentMax=0;resizeLast=0;collapsible=1;marginBottom=0;whiteSpace=wrap;html=1;" parent="1" vertex="1">
          <mxGeometry x="-110" y="450" width="150" height="70" as="geometry" />
        </mxCell>
        <mxCell id="VfQEoNdsdzEUcPi7nmdl-32" value="&lt;div&gt;&lt;span style=&quot;background-color: initial;&quot;&gt;nombre&lt;/span&gt;&lt;/div&gt;&lt;div&gt;&lt;span style=&quot;background-color: initial;&quot;&gt;descripcion&lt;/span&gt;&lt;/div&gt;&lt;div&gt;&lt;br&gt;&lt;/div&gt;" style="text;strokeColor=none;fillColor=none;align=left;verticalAlign=top;spacingLeft=4;spacingRight=4;overflow=hidden;rotatable=0;points=[[0,0.5],[1,0.5]];portConstraint=eastwest;whiteSpace=wrap;html=1;" parent="VfQEoNdsdzEUcPi7nmdl-31" vertex="1">
          <mxGeometry y="26" width="150" height="44" as="geometry" />
        </mxCell>
        <mxCell id="VfQEoNdsdzEUcPi7nmdl-33" value="TipoMatricula" style="swimlane;fontStyle=0;childLayout=stackLayout;horizontal=1;startSize=26;fillColor=none;horizontalStack=0;resizeParent=1;resizeParentMax=0;resizeLast=0;collapsible=1;marginBottom=0;whiteSpace=wrap;html=1;" parent="1" vertex="1">
          <mxGeometry x="-110" y="620" width="150" height="70" as="geometry" />
        </mxCell>
        <mxCell id="VfQEoNdsdzEUcPi7nmdl-34" value="&lt;div&gt;&lt;span style=&quot;background-color: initial;&quot;&gt;nombre&lt;/span&gt;&lt;/div&gt;&lt;div&gt;&lt;span style=&quot;background-color: initial;&quot;&gt;Descripcion&lt;/span&gt;&lt;/div&gt;&lt;div&gt;&lt;br&gt;&lt;/div&gt;" style="text;strokeColor=none;fillColor=none;align=left;verticalAlign=top;spacingLeft=4;spacingRight=4;overflow=hidden;rotatable=0;points=[[0,0.5],[1,0.5]];portConstraint=eastwest;whiteSpace=wrap;html=1;" parent="VfQEoNdsdzEUcPi7nmdl-33" vertex="1">
          <mxGeometry y="26" width="150" height="44" as="geometry" />
        </mxCell>
        <mxCell id="VfQEoNdsdzEUcPi7nmdl-35" value="Provincia" style="swimlane;fontStyle=0;childLayout=stackLayout;horizontal=1;startSize=26;fillColor=none;horizontalStack=0;resizeParent=1;resizeParentMax=0;resizeLast=0;collapsible=1;marginBottom=0;whiteSpace=wrap;html=1;" parent="1" vertex="1">
          <mxGeometry x="-110" y="530" width="150" height="80" as="geometry" />
        </mxCell>
        <mxCell id="VfQEoNdsdzEUcPi7nmdl-36" value="&lt;div&gt;&lt;span style=&quot;background-color: initial;&quot;&gt;nombre&lt;/span&gt;&lt;/div&gt;&lt;div&gt;&lt;br&gt;&lt;/div&gt;" style="text;strokeColor=none;fillColor=none;align=left;verticalAlign=top;spacingLeft=4;spacingRight=4;overflow=hidden;rotatable=0;points=[[0,0.5],[1,0.5]];portConstraint=eastwest;whiteSpace=wrap;html=1;" parent="VfQEoNdsdzEUcPi7nmdl-35" vertex="1">
          <mxGeometry y="26" width="150" height="54" as="geometry" />
        </mxCell>
        <mxCell id="VfQEoNdsdzEUcPi7nmdl-37" value="ProfesionalxEspecialidad" style="swimlane;fontStyle=0;childLayout=stackLayout;horizontal=1;startSize=26;fillColor=none;horizontalStack=0;resizeParent=1;resizeParentMax=0;resizeLast=0;collapsible=1;marginBottom=0;whiteSpace=wrap;html=1;" parent="1" vertex="1">
          <mxGeometry x="340" y="580" width="190" height="140" as="geometry" />
        </mxCell>
        <mxCell id="VfQEoNdsdzEUcPi7nmdl-38" value="&lt;div&gt;PK Matricula&lt;span style=&quot;background-color: initial;&quot;&gt;Profesional FK&lt;/span&gt;&lt;/div&gt;&lt;div&gt;PK codigoEspecialidad FK&lt;/div&gt;&lt;div&gt;&lt;br&gt;&lt;/div&gt;" style="text;strokeColor=none;fillColor=none;align=left;verticalAlign=top;spacingLeft=4;spacingRight=4;overflow=hidden;rotatable=0;points=[[0,0.5],[1,0.5]];portConstraint=eastwest;whiteSpace=wrap;html=1;" parent="VfQEoNdsdzEUcPi7nmdl-37" vertex="1">
          <mxGeometry y="26" width="190" height="114" as="geometry" />
        </mxCell>
        <mxCell id="VfQEoNdsdzEUcPi7nmdl-39" style="edgeStyle=orthogonalEdgeStyle;rounded=0;orthogonalLoop=1;jettySize=auto;html=1;entryX=0.012;entryY=0.413;entryDx=0;entryDy=0;entryPerimeter=0;" parent="1" source="VfQEoNdsdzEUcPi7nmdl-28" target="VfQEoNdsdzEUcPi7nmdl-38" edge="1">
          <mxGeometry relative="1" as="geometry" />
        </mxCell>
        <mxCell id="VfQEoNdsdzEUcPi7nmdl-40" style="edgeStyle=orthogonalEdgeStyle;rounded=0;orthogonalLoop=1;jettySize=auto;html=1;" parent="1" source="VfQEoNdsdzEUcPi7nmdl-30" target="VfQEoNdsdzEUcPi7nmdl-38" edge="1">
          <mxGeometry relative="1" as="geometry" />
        </mxCell>
        <mxCell id="VfQEoNdsdzEUcPi7nmdl-41" style="edgeStyle=orthogonalEdgeStyle;rounded=0;orthogonalLoop=1;jettySize=auto;html=1;entryX=-0.002;entryY=0.061;entryDx=0;entryDy=0;entryPerimeter=0;" parent="1" source="VfQEoNdsdzEUcPi7nmdl-32" target="VfQEoNdsdzEUcPi7nmdl-28" edge="1">
          <mxGeometry relative="1" as="geometry" />
        </mxCell>
        <mxCell id="VfQEoNdsdzEUcPi7nmdl-42" style="edgeStyle=orthogonalEdgeStyle;rounded=0;orthogonalLoop=1;jettySize=auto;html=1;entryX=0;entryY=0.5;entryDx=0;entryDy=0;" parent="1" source="VfQEoNdsdzEUcPi7nmdl-36" target="VfQEoNdsdzEUcPi7nmdl-28" edge="1">
          <mxGeometry relative="1" as="geometry" />
        </mxCell>
        <mxCell id="VfQEoNdsdzEUcPi7nmdl-43" style="edgeStyle=orthogonalEdgeStyle;rounded=0;orthogonalLoop=1;jettySize=auto;html=1;entryX=0.014;entryY=0.611;entryDx=0;entryDy=0;entryPerimeter=0;" parent="1" source="VfQEoNdsdzEUcPi7nmdl-33" target="VfQEoNdsdzEUcPi7nmdl-28" edge="1">
          <mxGeometry relative="1" as="geometry" />
        </mxCell>
        <mxCell id="VfQEoNdsdzEUcPi7nmdl-44" style="edgeStyle=orthogonalEdgeStyle;rounded=0;orthogonalLoop=1;jettySize=auto;html=1;entryX=0.998;entryY=0.4;entryDx=0;entryDy=0;entryPerimeter=0;" parent="1" source="VfQEoNdsdzEUcPi7nmdl-14" target="VfQEoNdsdzEUcPi7nmdl-22" edge="1">
          <mxGeometry relative="1" as="geometry" />
        </mxCell>
        <mxCell id="VfQEoNdsdzEUcPi7nmdl-45" style="edgeStyle=orthogonalEdgeStyle;rounded=0;orthogonalLoop=1;jettySize=auto;html=1;entryX=0.992;entryY=0.261;entryDx=0;entryDy=0;entryPerimeter=0;" parent="1" source="VfQEoNdsdzEUcPi7nmdl-14" target="VfQEoNdsdzEUcPi7nmdl-20" edge="1">
          <mxGeometry relative="1" as="geometry" />
        </mxCell>
        <mxCell id="Nffam_OnWRN9GMrJE0Es-1" value="Informe_Evolucion" style="swimlane;fontStyle=0;childLayout=stackLayout;horizontal=1;startSize=26;fillColor=none;horizontalStack=0;resizeParent=1;resizeParentMax=0;resizeLast=0;collapsible=1;marginBottom=0;whiteSpace=wrap;html=1;" vertex="1" parent="1">
          <mxGeometry x="1125" y="300" width="150" height="140" as="geometry" />
        </mxCell>
        <mxCell id="Nffam_OnWRN9GMrJE0Es-2" value="&lt;div&gt;PK Codigo&lt;/div&gt;&lt;div&gt;Fecha&lt;/div&gt;&lt;div&gt;Codigo_Especialidad FK&lt;/div&gt;&lt;div&gt;Matricula_Profesional FK&lt;/div&gt;&lt;div&gt;Hora&lt;/div&gt;&lt;div&gt;Evolucion&lt;/div&gt;" style="text;strokeColor=none;fillColor=none;align=left;verticalAlign=top;spacingLeft=4;spacingRight=4;overflow=hidden;rotatable=0;points=[[0,0.5],[1,0.5]];portConstraint=eastwest;whiteSpace=wrap;html=1;" vertex="1" parent="Nffam_OnWRN9GMrJE0Es-1">
          <mxGeometry y="26" width="150" height="114" as="geometry" />
        </mxCell>
        <mxCell id="Nffam_OnWRN9GMrJE0Es-5" value="Estudios" style="swimlane;fontStyle=0;childLayout=stackLayout;horizontal=1;startSize=26;fillColor=none;horizontalStack=0;resizeParent=1;resizeParentMax=0;resizeLast=0;collapsible=1;marginBottom=0;whiteSpace=wrap;html=1;" vertex="1" parent="1">
          <mxGeometry x="1125" y="450" width="150" height="140" as="geometry" />
        </mxCell>
        <mxCell id="Nffam_OnWRN9GMrJE0Es-6" value="PK codigo&lt;div&gt;fecha_vencimiento&lt;/div&gt;&lt;div&gt;nombre&lt;/div&gt;&lt;div&gt;descripcion&lt;/div&gt;" style="text;strokeColor=none;fillColor=none;align=left;verticalAlign=top;spacingLeft=4;spacingRight=4;overflow=hidden;rotatable=0;points=[[0,0.5],[1,0.5]];portConstraint=eastwest;whiteSpace=wrap;html=1;" vertex="1" parent="Nffam_OnWRN9GMrJE0Es-5">
          <mxGeometry y="26" width="150" height="114" as="geometry" />
        </mxCell>
        <mxCell id="Nffam_OnWRN9GMrJE0Es-7" value="Medicamentos" style="swimlane;fontStyle=0;childLayout=stackLayout;horizontal=1;startSize=26;fillColor=none;horizontalStack=0;resizeParent=1;resizeParentMax=0;resizeLast=0;collapsible=1;marginBottom=0;whiteSpace=wrap;html=1;" vertex="1" parent="1">
          <mxGeometry x="1100" y="600" width="150" height="140" as="geometry" />
        </mxCell>
        <mxCell id="Nffam_OnWRN9GMrJE0Es-8" value="&lt;div&gt;&lt;br&gt;&lt;/div&gt;" style="text;strokeColor=none;fillColor=none;align=left;verticalAlign=top;spacingLeft=4;spacingRight=4;overflow=hidden;rotatable=0;points=[[0,0.5],[1,0.5]];portConstraint=eastwest;whiteSpace=wrap;html=1;" vertex="1" parent="Nffam_OnWRN9GMrJE0Es-7">
          <mxGeometry y="26" width="150" height="114" as="geometry" />
        </mxCell>
        <mxCell id="Nffam_OnWRN9GMrJE0Es-10" style="edgeStyle=orthogonalEdgeStyle;rounded=0;orthogonalLoop=1;jettySize=auto;html=1;entryX=0.007;entryY=0.382;entryDx=0;entryDy=0;entryPerimeter=0;" edge="1" parent="1" source="VfQEoNdsdzEUcPi7nmdl-25" target="Nffam_OnWRN9GMrJE0Es-2">
          <mxGeometry relative="1" as="geometry">
            <Array as="points">
              <mxPoint x="1013" y="420" />
              <mxPoint x="1013" y="379" />
            </Array>
          </mxGeometry>
        </mxCell>
        <mxCell id="Nffam_OnWRN9GMrJE0Es-16" style="edgeStyle=orthogonalEdgeStyle;rounded=0;orthogonalLoop=1;jettySize=auto;html=1;entryX=0;entryY=0.5;entryDx=0;entryDy=0;" edge="1" parent="1" source="VfQEoNdsdzEUcPi7nmdl-15" target="VfQEoNdsdzEUcPi7nmdl-26">
          <mxGeometry relative="1" as="geometry" />
        </mxCell>
        <mxCell id="Nffam_OnWRN9GMrJE0Es-17" style="edgeStyle=orthogonalEdgeStyle;rounded=0;orthogonalLoop=1;jettySize=auto;html=1;entryX=0;entryY=0.5;entryDx=0;entryDy=0;" edge="1" parent="1" source="VfQEoNdsdzEUcPi7nmdl-26" target="Nffam_OnWRN9GMrJE0Es-8">
          <mxGeometry relative="1" as="geometry" />
        </mxCell>
      </root>
    </mxGraphModel>
  </diagram>
</mxfile>
